<?xml version="1.0" encoding="utf-8"?>
<!-- Svg Vector Icons : http://www.onlinewebfonts.com/icon -->
<!DOCTYPE svg PUBLIC "-//W3C//DTD SVG 1.1//EN" "http://www.w3.org/Graphics/SVG/1.1/DTD/svg11.dtd">
<svg version="1.1" xmlns="http://www.w3.org/2000/svg" xmlns:xlink="http://www.w3.org/1999/xlink" x="0px" y="0px" viewBox="0 0 1000 1000" enable-background="new 0 0 1000 1000" xml:space="preserve">
<metadata> Svg Vector Icons : http://www.onlinewebfonts.com/icon </metadata>
<g><path d="M683.7,500c8.3,0,16.7,0.6,26.1,1.8l7.3,21.9l5,14.9l15,4.6c10.3,3.2,20.3,7.4,29.8,12.3l13.9,7.3l14-7l20.6-10.3c13.8,10.8,26.2,23.2,37.1,37l-10.3,20.6l-7,14l7.2,13.8c5,9.7,9.2,19.8,12.4,30l4.7,15l14.9,5l22,7.3c1.2,9.4,1.8,17.9,1.7,25.8v0.1v0.1c0,8.1-0.6,16.8-1.8,26.2l-22,7.3l-15,5.1l-4.6,15.1c-3.1,10.2-7.2,20.2-12.2,29.6l-7.4,13.9l7,14.1l10.3,20.7c-5.7,7.5-11.4,14-17.2,19.8l0,0l0,0c-5.8,5.8-12.2,11.5-19.7,17.2l-20.7-10.3l-14-7L767,873c-9.7,5-19.8,9.2-29.9,12.4l-15,4.7l-4.9,14.8l-7.3,22c-9.4,1.2-18,1.8-26.2,1.8c-8.1,0-16.7-0.6-26.2-1.8l-7.3-22l-4.9-15l-15.1-4.6c-10.2-3.2-20.2-7.2-29.6-12.2l-13.9-7.4l-14.1,7L552,883.1c-7.4-5.7-13.9-11.4-19.7-17.2c-5.9-5.9-11.6-12.4-17.2-19.8l10.3-20.6l7-14l-7.3-13.9c-5-9.6-9.2-19.6-12.3-29.7l-4.6-15.1l-14.9-5l-22-7.3c-1.2-9.4-1.8-18-1.8-26.2c0-8.1,0.6-16.8,1.8-26.2l21.9-7.3l14.9-5l4.6-15c3.2-10.3,7.4-20.3,12.3-29.8l7.3-13.9l-7-14l-10.3-20.7c10.8-13.8,23.2-26.2,37-37l20.6,10.3l14.1,7l13.9-7.3c9.4-4.9,19.4-9.1,29.8-12.3l15-4.7l5-14.9l7.3-22C667.1,500.6,675.6,500,683.7,500L683.7,500z M683.8,438.8c-13.9,0-27.8,1.3-43.7,3.8l-11.8,1.9l-14.9,44.7c-13.6,4.3-26.8,9.6-39.3,16.3l-42.1-21.1l-9.7,7c-23.8,17.2-44.5,38-61.8,61.7l-7,9.7l21.1,42.1c-6.6,12.5-12,25.7-16.3,39.3l-44.6,14.8l-1.9,11.8c-2.5,15.9-3.8,30.1-3.8,43.7c0,13.5,1.2,27.8,3.8,43.7l1.9,11.8l44.6,14.9c4.2,13.6,9.6,26.8,16.3,39.3L453.7,866l7,9.7c9.3,12.9,18.6,23.8,28.2,33.5c9.7,9.7,20.6,18.9,33.4,28.3l9.7,7l42.1-21c12.5,6.6,25.6,12.1,39.3,16.3l14.9,44.7l11.8,1.9c15.9,2.5,30.2,3.8,43.7,3.8s27.8-1.2,43.7-3.8l11.8-1.9l14.9-44.7c13.6-4.3,26.8-9.7,39.3-16.3l42.1,21l9.7-7c12.9-9.3,23.8-18.5,33.4-28.3c9.7-9.7,18.9-20.6,28.2-33.5l7-9.7l-21.1-42.1c6.6-12.5,12.1-25.7,16.3-39.3l44.6-14.9l1.9-11.8c2.5-15.9,3.8-30.1,3.8-43.7c0.1-13.5-1.1-27.7-3.7-43.6l-1.9-11.8l-44.6-14.9c-4.3-13.6-9.7-26.8-16.3-39.3l21.1-42.1l-7-9.7c-17.3-23.7-38.1-44.5-61.9-61.7l-9.7-7l-42.1,21c-12.5-6.6-25.6-12-39.3-16.3l-14.9-44.5l-11.7-1.8C711.6,440,697.7,438.8,683.8,438.8L683.8,438.8L683.8,438.8z"/><path d="M683.8,683.7c8.2,0,15.9,3.2,21.7,9c5.8,5.8,9,13.5,9,21.7c0,8.2-3.2,15.9-9,21.7s-13.5,9-21.7,9c-8.2,0-15.9-3.2-21.7-9c-5.8-5.8-9-13.5-9-21.7c0-8.2,3.2-15.9,9-21.7C667.9,686.9,675.6,683.7,683.8,683.7L683.8,683.7z M683.8,622.5c-50.7,0-91.9,41.2-91.9,91.9c0,50.7,41.1,91.9,91.9,91.9s91.9-41.2,91.9-91.9C775.6,663.6,734.5,622.5,683.8,622.5L683.8,622.5L683.8,622.5z"/><path d="M472.3,465.5c71.6-42.8,119.6-121,119.6-210.5c0-135.3-109.7-245-245-245s-245,109.7-245,245c0,89.5,48,167.8,119.6,210.5C114.9,513.4,40.6,620.5,40.6,745v214.4c0,16.9,13.7,30.6,30.6,30.6c16.9,0,30.6-13.7,30.6-30.6V745c0-135.3,109.7-245,245-245c46.5,0,89.9,12.9,126.9,35.4h96.4C542.7,506.1,509.4,482.2,472.3,465.5z M163.1,255c0-101.5,82.3-183.7,183.7-183.7c101.5,0,183.8,82.3,183.8,183.7c0,101.5-82.3,183.8-183.8,183.8C245.4,438.8,163.1,356.5,163.1,255z"/></g>
</svg>