<?xml version="1.0" encoding="utf-8"?>
<!-- Svg Vector Icons : http://www.onlinewebfonts.com/icon -->
<!DOCTYPE svg PUBLIC "-//W3C//DTD SVG 1.1//EN" "http://www.w3.org/Graphics/SVG/1.1/DTD/svg11.dtd">
<svg version="1.1" xmlns="http://www.w3.org/2000/svg" xmlns:xlink="http://www.w3.org/1999/xlink" x="0px" y="0px" viewBox="0 0 1000 1000" enable-background="new 0 0 1000 1000" xml:space="preserve">
<metadata> Svg Vector Icons : http://www.onlinewebfonts.com/icon </metadata>
<g><g transform="translate(0.000000,512.000000) scale(0.100000,-0.100000)"><path d="M7853.9,4975.3c-183.8-65.1-319.7-139.8-356.1-195.3c-28.7-42.1-28.7-59.4-7.7-149.3c21.1-88.1,19.2-109.1-7.7-160.8c-17.2-32.5-57.4-74.7-90-91.9c-57.4-28.7-86.2-28.7-212.5,3.8c-36.4,7.7-68.9,1.9-101.5-19.1c-78.5-51.7-239.3-405.9-239.3-528.4c0-67,59.3-128.3,153.2-153.2c202.9-55.5,206.8-319.7,3.8-384.8c-95.7-30.6-157-90-157-151.3c0-122.5,160.8-476.7,241.2-528.4c42.1-28.7,59.4-28.7,149.3-7.7c88.1,21.1,109.1,19.1,162.7-7.7c91.9-47.9,126.3-141.7,95.7-260.4c-21.1-80.4-19.1-99.6,9.6-141.7c51.7-80.4,404-241.2,528.4-241.2c61.3,0,120.6,61.3,151.3,157c30.6,93.8,103.4,149.3,193.4,149.3c95.7,0,160.8-55.5,199.1-164.7c34.5-101.5,74.6-139.8,147.4-141.7c118.7,0,474.8,160.8,526.5,239.3c21.1,32.5,26.8,65.1,19.1,101.5c-32.5,126.4-32.5,155.1-3.8,212.5c17.2,32.5,59.4,72.8,91.9,90c51.7,26.8,72.8,28.7,160.8,7.7c90-23,107.2-21.1,153.2,7.7c57.4,40.2,187.6,298.7,222.1,449.9c19.2,90,19.2,103.4-15.3,149.3c-21.1,26.8-72.8,61.3-113,76.6c-220.2,72.7-220.2,321.6,0,394.4c40.2,15.3,91.9,49.8,113,76.6c34.5,46,34.5,59.4,13.4,153.2c-11.5,57.4-59.4,176.1-103.4,264.2c-97.7,195.3-139.8,224-277.6,187.6c-78.5-19.1-99.6-17.2-153.2,9.6c-32.5,17.2-74.7,59.4-91.9,91.9c-26.8,53.6-28.7,74.7-9.6,153.2c36.4,137.8,7.7,180-187.6,277.6c-88.1,44-206.8,91.9-264.2,103.4c-93.8,21.1-107.2,21.1-153.2-13.4c-26.8-21.1-61.3-72.7-76.6-113c-72.8-216.3-327.4-220.2-392.5-7.7c-24.9,84.2-93.8,151.2-157,151.2C7997.5,5021.2,7922.8,5000.2,7853.9,4975.3z M7972.6,4600c149.3-216.3,499.7-254.6,719.9-78.5c40.2,30.6,84.2,76.6,97.6,103.4c23,42.1,32.5,46,78.5,30.6c47.9-17.2,53.6-30.6,63.2-132.1c23-260.4,212.5-449.9,474.8-472.9c99.6-9.6,112.9-15.3,130.2-63.2c15.3-45.9,11.5-55.5-30.6-78.5c-68.9-38.3-174.2-181.9-199.1-273.8c-32.6-120.6-11.5-300.6,47.9-402.1c40.2-68.9,118.7-145.5,199.1-195.3c3.8-1.9-5.7-26.8-19.2-55.5c-23-44-42.1-51.7-122.5-55.5c-256.5-15.3-451.8-206.8-478.6-469.1c-11.5-95.7-19.1-116.8-61.3-134c-40.2-19.1-51.7-17.2-76.6,21.1c-130.2,189.5-375.3,271.9-593.5,199.1c-91.9-30.6-225.9-137.9-266.1-210.6c-17.2-32.6-23-32.6-76.6-3.8c-45.9,23-55.5,38.3-49.8,76.6c5.7,24.9-5.7,95.7-23,158.9c-46,157-183.8,294.8-340.8,340.8c-63.2,17.2-134,28.7-158.9,23c-38.3-5.7-53.6,3.8-76.6,49.8c-28.7,53.6-28.7,59.4,3.8,76.6c72.8,40.2,180,174.2,210.6,266.1c72.8,218.3-9.6,463.3-199.1,593.5c-38.3,24.9-40.2,36.4-21.1,76.6c17.2,42.1,36.4,49.8,130.2,59.3c260.4,23,457.6,224,472.9,480.6c3.8,76.6,13.4,99.6,49.8,118.7C7917.1,4684.3,7913.2,4684.3,7972.6,4600z"/><path d="M8177.5,4192.2c-199.1-57.4-381-214.4-472.9-411.6c-44-93.8-51.7-135.9-51.7-291c0-166.6,5.7-193.4,61.3-308.2c74.6-153.2,212.5-287.2,365.7-358c93.8-44,134-51.7,291-51.7c166.6,0,193.4,5.7,308.2,61.3c153.2,76.6,287.2,212.5,358,365.7c70.8,151.3,72.8,398.2,5.7,568.6c-63.2,158.9-237.4,331.2-394.4,392.5C8510.6,4211.4,8300,4226.7,8177.5,4192.2z M8554.6,3866.8c135.9-70.8,218.3-195.3,231.7-356.1c7.7-91.9,1.9-122.5-46-212.5c-153.2-289.1-553.3-306.3-723.7-28.7c-47.9,78.5-57.4,111-57.4,220.2c0,174.2,68.9,291,220.2,369.5c90,47.9,120.6,53.6,212.5,46C8451.2,3899.3,8524,3882.1,8554.6,3866.8z"/><path d="M4417.3,1938.8c-302.5-42.1-610.7-168.5-838.6-340.8c-70.8-55.5-137.9-99.6-145.5-99.6c-9.6,0-57.4,17.2-107.2,40.2c-135.9,59.4-419.3,113-603.1,113c-413.5-1.9-746.7-130.2-1003.2-388.6C1243,782.4,1139.6-37,1453.6-835.4c158.9-405.9,266.1-597.3,440.3-783c90-95.7,93.8-101.5,70.8-157c-26.8-61.3-160.8-212.5-239.3-269.9c-30.6-21.1-168.5-59.4-333.1-93.8c-518.8-109.1-959.2-279.5-1110.4-430.8c-122.5-122.5-180-350.4-181.9-714.1c0-162.7,3.8-181.9,47.9-224l45.9-47.9h719.9h717.9l-74.7-67c-134-120.6-201-348.4-224-748.6c-15.3-260.4-5.7-314,53.6-371.4c42.1-38.3,53.6-38.3,3312.2-38.3h3271.9l46,47.9c44,42.1,47.9,59.3,47.9,247c0,411.6-65.1,679.7-202.9,832.8l-88.1,97.6h712.2H9196l49.8,49.8l49.8,49.8l-11.5,269.9c-17.2,476.7-95.7,622.2-417.4,775.4c-212.5,101.5-538,202.9-876.9,271.9c-158.9,34.5-296.8,72.8-325.5,93.8c-72.7,51.7-202.9,197.2-239.3,264.2c-28.7,57.4-28.7,57.4,72.8,162.7c183.8,189.5,312.1,407.8,474.8,809.8c134,329.3,187.6,593.5,187.6,938.1c0,340.8-34.5,499.7-176.1,794.5c-149.3,314-465.2,562.9-850.1,673.9c-124.4,36.4-199.1,42.1-428.9,44c-298.7,0-428.9-24.9-628-114.9l-101.5-45.9l-137.9,103.4c-227.8,174.2-426.9,266.1-712.2,327.4C4964.8,1948.4,4578.1,1961.8,4417.3,1938.8z M5135.2,1596.1c428.9-114.9,739-381,938.1-813.7c139.8-300.6,193.4-668.2,155.1-1068.3c-38.3-394.4-88.1-585.8-264.2-1020.4c-204.9-499.7-319.7-662.4-683.5-978.3c-84.2-72.8-86.2-113-11.5-271.9c149.3-314,384.8-587.8,599.2-691.2c76.6-38.3,218.3-78.5,405.9-114.9c520.8-103.4,1010.9-266.1,1259.8-417.4c86.2-51.7,122.5-88.1,149.3-149.3c32.5-74.7,74.7-342.7,74.7-482.5v-63.2H4694.9H1629.7l11.5,149.3c19.1,247,61.3,415.5,120.6,472.9c158.9,158.9,777.3,381,1397.6,499.7c283.4,53.6,425,114.9,580.1,254.6c120.6,107.2,268,312.1,369.5,513.1c90,181.9,90,224-9.6,310.2c-369.5,319.7-490.1,501.6-714.1,1066.4c-126.4,323.6-155.1,423.1-191.5,658.6c-44,291-53.6,492-32.6,717.9c26.8,266.1,76.6,446.1,183.8,658.6c227.8,457.6,595.4,727.5,1091.3,806C4606.8,1657.4,4966.8,1640.1,5135.2,1596.1z M3086.7,1297.4c57.4-17.2,113-38.3,120.6-45.9c7.7-7.7-21-74.7-63.2-147.4C2841.6,587.1,2767-54.2,2925.9-779.8c53.6-243.1,245.1-750.5,386.7-1018.5c107.2-204.9,300.6-467.1,425-574.4l93.8-80.4l-59.4-111c-74.7-139.8-243.1-327.4-352.3-390.6c-57.4-34.5-176.1-68.9-363.8-107.2c-153.2-30.6-381-84.2-509.3-120.6l-229.7-67h-957.3H402.5l11.5,128.3c23,229.7,47.9,308.2,114.9,359.9c137.8,103.4,549.5,245.1,957.3,327.4c310.2,63.2,432.7,122.5,582,287.2c128.3,137.9,271.9,396.3,271.9,486.3c0,44-15.3,74.7-61.3,111c-258.5,218.3-346.5,346.5-505.4,739c-145.5,358-185.7,547.5-185.7,882.6c-1.9,314,23,434.6,141.7,677.7c145.5,294.8,396.3,495.9,706.5,566.7C2594.6,1353,2939.3,1341.5,3086.7,1297.4z M7118.7,1280.2c342.7-109.1,574.4-356.1,691.2-729.4c53.6-176.1,47.9-685.4-7.7-913.2c-51.7-204.9-208.7-580.1-317.8-765.8c-72.8-126.3-254.6-327.4-382.9-430.8c-36.4-28.7-51.7-59.3-51.7-101.5c0-120.6,206.8-449.9,365.7-578.2c128.3-105.3,218.3-141.7,449.9-185.7c449.9-86.2,926.6-254.6,1024.3-361.8c38.3-42.1,55.5-90,72.8-202.9c11.5-80.4,21.1-172.3,21.1-202.9v-57.4h-955.4c-894.1,0-963,1.9-1076,38.3c-178.1,53.6-559,145.5-725.6,172.3c-78.5,13.4-185.7,46-237.4,72.8c-111,61.3-264.2,224-361.8,388.6l-70.8,120.6l93.8,82.3c218.3,191.4,415.4,511.2,610.7,991.7c216.3,530.3,277.6,827.1,279.5,1330.6c0,225.9-9.6,363.8-32.6,484.4c-40.2,195.3-157,509.3-252.7,670.1c-36.4,61.3-67,118.7-67,128.3c0,15.3,191.4,84.2,287.2,103.4c26.8,3.8,147.4,5.7,268,1.9C6915.8,1331.9,6996.2,1320.4,7118.7,1280.2z"/></g></g>
</svg>