<?xml version="1.0" encoding="utf-8"?>
<!-- Svg Vector Icons : http://www.onlinewebfonts.com/icon -->
<!DOCTYPE svg PUBLIC "-//W3C//DTD SVG 1.1//EN" "http://www.w3.org/Graphics/SVG/1.1/DTD/svg11.dtd">
<svg version="1.1" xmlns="http://www.w3.org/2000/svg" xmlns:xlink="http://www.w3.org/1999/xlink" x="0px" y="0px" viewBox="0 0 1000 1000" enable-background="new 0 0 1000 1000" xml:space="preserve">
<metadata> Svg Vector Icons : http://www.onlinewebfonts.com/icon </metadata>
<g><path d="M315.2,952.8c-10.9-0.6-19.6-9.9-19.6-21.3c0-11.8,9.3-21.3,20.7-21.3h161.8V745.2c0-0.3,0-0.9,0-1.3v-15.4l-13.1-2.3c-47.3-7.4-92.2-30.2-133.4-67.7c-32.8-29.9-62.4-68.3-87.9-114.4l-0.9-1.7L241,543c-2,0.7-4.1,1.1-6.1,1.1c-1.4,0-2.7-0.2-3.9-0.5C68.2,512.3,3,341.2,10.6,185.3c0-11.9,9.3-21.4,20.7-21.4h118.9l-0.2-6.4c-0.1-6-0.2-12-0.2-17.9c0-22,0.9-45.2,2.9-72.7c0.8-11,9.9-19.7,20.6-19.7h651.1c10.7,0,19.8,8.7,20.6,19.7c1.9,26.3,2.9,50.1,2.9,72.7c0,7.2-0.1,14.5-0.3,21.9l0,2.4h121.1c11.4,0,20.6,9.6,20.6,21.3c7.6,155.9-57.6,327.1-220.2,358.3c-1.3,0.4-2.6,0.5-3.9,0.5c-2.5,0-5.3-0.6-7.9-1.8l-1.9-0.8l-1,1.9c-25.7,46.5-55.4,85.2-88.4,115.3c-41.2,37.5-86.1,60.2-133.4,67.6l-13.2,2.2v14.7c0,1.2-0.1,1.8,0,2.5l0,164.5h161.8c11.4,0,20.7,9.6,20.7,21.3c0,11.7-9.3,21.3-20.7,21.3L315.2,952.8L315.2,952.8z M191.9,105.3c-0.5,11.4-0.8,22.6-0.8,34.3c0,71.5,8,141.5,23.8,208.1c15.3,64.4,37.1,122.6,64.9,173c28,51,60.7,91.3,97.1,119.9c38.8,30.4,79.8,45.8,122,45.8c42.2,0,83.2-15.4,122-45.8c36.3-28.6,69-68.9,97.1-119.9c27.8-50.5,49.5-108.7,64.9-173c15.8-66.6,23.8-136.6,23.8-208.1c0-11-0.2-22.1-0.7-34.2l-0.6-15.5H192.6L191.9,105.3L191.9,105.3z M844.8,216.8l-0.7,8.7c-2.2,25-5.3,49.9-9.3,74c-0.5,2.7-2.2,12.4-2.2,12.4c-11.6,65.2-29.8,126.5-54,182.3l-1.9,4.4l4.6-1.2c81.9-21.3,168.9-120.6,166.1-288.6l0-2.3H845.6L844.8,216.8L844.8,216.8z M52.5,208.8c-2.7,166,83.1,265.7,164,288.1l4.7,1.3l-1.9-4.4c-36.5-84-58.9-179.9-66.6-285l-0.1-2.2H52.6L52.5,208.8L52.5,208.8z"/></g>


<svg version="1.1" xmlns="http://www.w3.org/2000/svg" xmlns:xlink="http://www.w3.org/1999/xlink" width="600" x="400px" y="150px" viewBox="0 0 1000 1000" enable-background="new 0 0 1000 1000" xml:space="preserve">
<g ><path style="stroke-width=4%"  d="M500,346.9c-84.6,0-153.1,68.6-153.1,153.1c0,84.6,68.6,153.1,153.1,153.1c84.6,0,153.1-68.6,153.1-153.1C653.1,415.4,584.6,346.9,500,346.9z M500,591.9c-50.7,0-91.9-41.1-91.9-91.9c0-50.7,41.1-91.9,91.9-91.9c50.7,0,91.9,41.1,91.9,91.9C591.9,550.7,550.7,591.9,500,591.9z M891.2,364.3L884,362c-4.4-12.3-9.3-24.3-14.9-36l3.4-6.6c16.2-19.5,25.1-43.8,25.1-69.5c0-29.1-11.3-56.5-31.9-77l-38.5-38.5c-20.6-20.6-47.9-31.9-77-31.9c-25.7,0-50,8.9-69.5,25.1l-6.6,3.4c-11.7-5.5-23.8-10.5-36.1-14.9l-2.4-7.2C630.5,53.5,583.8,10,527.2,10h-54.4c-56.6,0-103.3,43.5-108.4,98.8l-2.3,7.1c-12.3,4.4-24.3,9.3-35.9,14.8l-7-3.4c-19.5-16.1-43.7-24.9-69.4-24.9c-29.1,0-56.4,11.3-76.9,31.9l-38.5,38.5c-20.6,20.5-31.9,47.9-31.9,77c0,25.6,8.8,49.9,25,69.4l3.4,6.9c-5.5,11.6-10.4,23.6-14.8,35.8l-7.4,2.5C53.3,369.6,10,416.2,10,472.8v54.4c0,56.5,43.3,103.2,98.6,108.4l7.4,2.5c4.4,12.2,9.3,24.2,14.8,35.8l-3.5,7c-16.1,19.5-24.9,43.7-24.9,69.4c0,29.1,11.3,56.4,31.9,77l38.5,38.5c20.6,20.6,47.9,31.9,77,31.9c25.6,0,49.9-8.8,69.4-24.9l6.9-3.4c11.6,5.5,23.6,10.4,35.8,14.7l2.5,7.5c5.2,55.2,51.8,98.5,108.4,98.5h54.4c56.5,0,103.2-43.3,108.4-98.5l2.5-7.5c12.2-4.4,24.2-9.3,35.9-14.8l6.7,3.4c19.5,16.2,43.8,25.1,69.5,25.1c29.1,0,56.4-11.3,77-31.9l38.5-38.5c20.6-20.6,31.9-47.9,31.9-77c0-25.7-8.9-50-25.1-69.6l-3.4-6.6c5.5-11.7,10.5-23.8,14.9-36.1l7.2-2.4c55.3-5.1,98.8-51.8,98.8-108.4v-54.4C990,416.2,946.5,369.5,891.2,364.3z M928.8,526.8c0,29.6-24,53.6-53.6,53.6l-39.9,13.1c-7.7,27.4-18.4,53.5-32.1,77.7l18.9,37.3c20.9,20.9,20.9,54.9,0,75.8l-37.9,37.9c-10.5,10.5-24.2,15.7-37.9,15.7c-13.7,0-27.5-5.2-37.9-15.7l-37.4-18.9c-24.1,13.7-50,24.4-77.3,32l-13.4,40c0,29.6-24,53.5-53.6,53.5h-53.6c-29.6,0-53.6-24-53.6-53.5l-13.4-40c-27.2-7.6-53-18.2-77.1-31.8l-37.6,18.7c-10.5,10.5-24.2,15.7-37.9,15.7c-13.7,0-27.4-5.2-37.9-15.7l-37.9-37.9c-20.9-20.9-20.9-54.9,0-75.8l18.7-37.6c-13.6-24-24.2-49.9-31.8-77.1l-40-13.4c-29.6,0-53.6-24-53.6-53.6v-53.6c0-29.6,24-53.6,53.6-53.6l40-13.4c7.6-27.2,18.2-53,31.8-77.1l-18.7-37.6c-20.9-20.9-20.9-54.9,0-75.9l37.9-37.9c10.5-10.5,24.2-15.7,37.9-15.7c13.7,0,24,0,34.7,10.6l38.2,19c24.5-13.9,50.9-24.7,78.7-32.4l14.5-34.6c0-29.6,24-53.6,53.6-53.6h53.6c29.6,0,53.6,24,53.6,53.6l13.1,39.9c27.4,7.6,53.5,18.4,77.7,32.1l37.3-18.9c10.5-10.5,27.8-21,41.8-21c13.9,0,23.6,10.5,34,21l37.9,37.9c20.9,20.9,20.9,54.9,0,75.9l-18.9,37.3c13.7,24.2,24.4,50.3,32.1,77.7l39.8,13c29.6,0,53.6,24,53.6,53.6L928.8,526.8L928.8,526.8z" /></g>
</svg>
</svg>