<?xml version="1.0" encoding="utf-8"?>
<!-- Svg Vector Icons : http://www.onlinewebfonts.com/icon -->
<!DOCTYPE svg PUBLIC "-//W3C//DTD SVG 1.1//EN" "http://www.w3.org/Graphics/SVG/1.1/DTD/svg11.dtd">
<svg version="1.1" xmlns="http://www.w3.org/2000/svg" xmlns:xlink="http://www.w3.org/1999/xlink" x="0px" y="0px" viewBox="0 0 1000 1000" enable-background="new 0 0 1000 1000" xml:space="preserve">
<metadata> Svg Vector Icons : http://www.onlinewebfonts.com/icon </metadata>
<g><path d="M500,346.9c-84.6,0-153.1,68.6-153.1,153.1c0,84.6,68.6,153.1,153.1,153.1c84.6,0,153.1-68.6,153.1-153.1C653.1,415.4,584.6,346.9,500,346.9z M500,591.9c-50.7,0-91.9-41.1-91.9-91.9c0-50.7,41.1-91.9,91.9-91.9c50.7,0,91.9,41.1,91.9,91.9C591.9,550.7,550.7,591.9,500,591.9z M891.2,364.3L884,362c-4.4-12.3-9.3-24.3-14.9-36l3.4-6.6c16.2-19.5,25.1-43.8,25.1-69.5c0-29.1-11.3-56.5-31.9-77l-38.5-38.5c-20.6-20.6-47.9-31.9-77-31.9c-25.7,0-50,8.9-69.5,25.1l-6.6,3.4c-11.7-5.5-23.8-10.5-36.1-14.9l-2.4-7.2C630.5,53.5,583.8,10,527.2,10h-54.4c-56.6,0-103.3,43.5-108.4,98.8l-2.3,7.1c-12.3,4.4-24.3,9.3-35.9,14.8l-7-3.4c-19.5-16.1-43.7-24.9-69.4-24.9c-29.1,0-56.4,11.3-76.9,31.9l-38.5,38.5c-20.6,20.5-31.9,47.9-31.9,77c0,25.6,8.8,49.9,25,69.4l3.4,6.9c-5.5,11.6-10.4,23.6-14.8,35.8l-7.4,2.5C53.3,369.6,10,416.2,10,472.8v54.4c0,56.5,43.3,103.2,98.6,108.4l7.4,2.5c4.4,12.2,9.3,24.2,14.8,35.8l-3.5,7c-16.1,19.5-24.9,43.7-24.9,69.4c0,29.1,11.3,56.4,31.9,77l38.5,38.5c20.6,20.6,47.9,31.9,77,31.9c25.6,0,49.9-8.8,69.4-24.9l6.9-3.4c11.6,5.5,23.6,10.4,35.8,14.7l2.5,7.5c5.2,55.2,51.8,98.5,108.4,98.5h54.4c56.5,0,103.2-43.3,108.4-98.5l2.5-7.5c12.2-4.4,24.2-9.3,35.9-14.8l6.7,3.4c19.5,16.2,43.8,25.1,69.5,25.1c29.1,0,56.4-11.3,77-31.9l38.5-38.5c20.6-20.6,31.9-47.9,31.9-77c0-25.7-8.9-50-25.1-69.6l-3.4-6.6c5.5-11.7,10.5-23.8,14.9-36.1l7.2-2.4c55.3-5.1,98.8-51.8,98.8-108.4v-54.4C990,416.2,946.5,369.5,891.2,364.3z M928.8,526.8c0,29.6-24,53.6-53.6,53.6l-39.9,13.1c-7.7,27.4-18.4,53.5-32.1,77.7l18.9,37.3c20.9,20.9,20.9,54.9,0,75.8l-37.9,37.9c-10.5,10.5-24.2,15.7-37.9,15.7c-13.7,0-27.5-5.2-37.9-15.7l-37.4-18.9c-24.1,13.7-50,24.4-77.3,32l-13.4,40c0,29.6-24,53.5-53.6,53.5h-53.6c-29.6,0-53.6-24-53.6-53.5l-13.4-40c-27.2-7.6-53-18.2-77.1-31.8l-37.6,18.7c-10.5,10.5-24.2,15.7-37.9,15.7c-13.7,0-27.4-5.2-37.9-15.7l-37.9-37.9c-20.9-20.9-20.9-54.9,0-75.8l18.7-37.6c-13.6-24-24.2-49.9-31.8-77.1l-40-13.4c-29.6,0-53.6-24-53.6-53.6v-53.6c0-29.6,24-53.6,53.6-53.6l40-13.4c7.6-27.2,18.2-53,31.8-77.1l-18.7-37.6c-20.9-20.9-20.9-54.9,0-75.9l37.9-37.9c10.5-10.5,24.2-15.7,37.9-15.7c13.7,0,24,0,34.7,10.6l38.2,19c24.5-13.9,50.9-24.7,78.7-32.4l14.5-34.6c0-29.6,24-53.6,53.6-53.6h53.6c29.6,0,53.6,24,53.6,53.6l13.1,39.9c27.4,7.6,53.5,18.4,77.7,32.1l37.3-18.9c10.5-10.5,27.8-21,41.8-21c13.9,0,23.6,10.5,34,21l37.9,37.9c20.9,20.9,20.9,54.9,0,75.9l-18.9,37.3c13.7,24.2,24.4,50.3,32.1,77.7l39.8,13c29.6,0,53.6,24,53.6,53.6L928.8,526.8L928.8,526.8z"/></g>
</svg>