<?xml version="1.0" encoding="utf-8"?>
<!-- Svg Vector Icons : http://www.onlinewebfonts.com/icon -->
<!DOCTYPE svg PUBLIC "-//W3C//DTD SVG 1.1//EN" "http://www.w3.org/Graphics/SVG/1.1/DTD/svg11.dtd">
<svg version="1.1" xmlns="http://www.w3.org/2000/svg" xmlns:xlink="http://www.w3.org/1999/xlink" x="0px" y="0px" viewBox="0 0 1000 1000" enable-background="new 0 0 1000 1000" xml:space="preserve">
<metadata> Svg Vector Icons : http://www.onlinewebfonts.com/icon </metadata>
<g><path d="M315.2,952.8c-10.9-0.6-19.6-9.9-19.6-21.3c0-11.8,9.3-21.3,20.7-21.3h161.8V745.2c0-0.3,0-0.9,0-1.3v-15.4l-13.1-2.3c-47.3-7.4-92.2-30.2-133.4-67.7c-32.8-29.9-62.4-68.3-87.9-114.4l-0.9-1.7L241,543c-2,0.7-4.1,1.1-6.1,1.1c-1.4,0-2.7-0.2-3.9-0.5C68.2,512.3,3,341.2,10.6,185.3c0-11.9,9.3-21.4,20.7-21.4h118.9l-0.2-6.4c-0.1-6-0.2-12-0.2-17.9c0-22,0.9-45.2,2.9-72.7c0.8-11,9.9-19.7,20.6-19.7h651.1c10.7,0,19.8,8.7,20.6,19.7c1.9,26.3,2.9,50.1,2.9,72.7c0,7.2-0.1,14.5-0.3,21.9l0,2.4h121.1c11.4,0,20.6,9.6,20.6,21.3c7.6,155.9-57.6,327.1-220.2,358.3c-1.3,0.4-2.6,0.5-3.9,0.5c-2.5,0-5.3-0.6-7.9-1.8l-1.9-0.8l-1,1.9c-25.7,46.5-55.4,85.2-88.4,115.3c-41.2,37.5-86.1,60.2-133.4,67.6l-13.2,2.2v14.7c0,1.2-0.1,1.8,0,2.5l0,164.5h161.8c11.4,0,20.7,9.6,20.7,21.3c0,11.7-9.3,21.3-20.7,21.3L315.2,952.8L315.2,952.8z M191.9,105.3c-0.5,11.4-0.8,22.6-0.8,34.3c0,71.5,8,141.5,23.8,208.1c15.3,64.4,37.1,122.6,64.9,173c28,51,60.7,91.3,97.1,119.9c38.8,30.4,79.8,45.8,122,45.8c42.2,0,83.2-15.4,122-45.8c36.3-28.6,69-68.9,97.1-119.9c27.8-50.5,49.5-108.7,64.9-173c15.8-66.6,23.8-136.6,23.8-208.1c0-11-0.2-22.1-0.7-34.2l-0.6-15.5H192.6L191.9,105.3L191.9,105.3z M844.8,216.8l-0.7,8.7c-2.2,25-5.3,49.9-9.3,74c-0.5,2.7-2.2,12.4-2.2,12.4c-11.6,65.2-29.8,126.5-54,182.3l-1.9,4.4l4.6-1.2c81.9-21.3,168.9-120.6,166.1-288.6l0-2.3H845.6L844.8,216.8L844.8,216.8z M52.5,208.8c-2.7,166,83.1,265.7,164,288.1l4.7,1.3l-1.9-4.4c-36.5-84-58.9-179.9-66.6-285l-0.1-2.2H52.6L52.5,208.8L52.5,208.8z"/></g>
</svg>