<svg xmlns="http://www.w3.org/2000/svg" width="640" height="480">
 <title>Orange Puzzle Piece</title>
 <metadata id="metadata13884">image/svg+xmlJigsaw puzzle piece2008-03-05Risto PekkalaRisto PekkalaRisto Pekkalaristo@pekkala.se</metadata>
 <g>
  <title>Layer 1</title>
  <g id="st  dlinjer" display="none" stroke="#000000"/>
  <g id="g13803" stroke="#000000">
   <path d="m522.629944,308.611115l-71.609833,35.807648l-0.030121,0c-1.63208,0.821106 -3.444458,0.901154 -5.036621,0.360291c-1.602081,-0.525574 -3.013947,-1.68222 -3.835052,-3.314301c-0.320465,-0.655792 -0.525757,-1.321655 -0.635834,-2.012573l-0.020081,-0.125275c-0.320404,-2.032745 -0.946228,-4.020233 -1.887482,-5.907806c-3.354431,-6.698944 -10.103333,-10.934601 -18.29422,-12.32132c-8.185883,-1.416962 -17.818634,0.010101 -26.970764,4.586151c-9.132019,4.56601 -16.061218,11.429932 -19.851288,18.814941c-3.790009,7.404816 -4.465912,15.325165 -1.11145,22.039063c2.468262,4.926575 6.778992,8.526306 12.151093,10.639038l-0.030029,0c5.367065,2.112854 9.68277,5.702454 12.146088,10.63913c3.354431,6.709045 2.698578,14.639496 -1.106445,22.029327c-3.785004,7.404846 -10.709229,14.258698 -19.856323,18.824982c-9.14212,4.565948 -18.774872,5.992706 -26.975739,4.595947c-8.185822,-1.396881 -14.929749,-5.622406 -18.28418,-12.341187c-0.941284,-1.877502 -1.567108,-3.860413 -1.897583,-5.898041l-0.019989,-0.124969c-0.100159,-0.686035 -0.305359,-1.366882 -0.630798,-2.012848c-0.816162,-1.632111 -2.218018,-2.778656 -3.820068,-3.314331c-1.607147,-0.535675 -3.414581,-0.46051 -5.046722,0.350494l-0.045013,0.029938l-71.604889,35.797607l0.045074,0.019806l-35.807465,-71.609711l-0.01001,-0.030029c-0.816055,-1.632355 -0.891144,-3.434692 -0.355453,-5.036835c0.535675,-1.602203 1.682205,-3.013916 3.314392,-3.824982c0.650818,-0.330322 1.326752,-0.545715 2.007675,-0.635895l0.135132,-0.029938c2.037674,-0.320526 4.01532,-0.946411 5.897858,-1.897644c6.713837,-3.35437 10.934418,-10.093353 12.331329,-18.284088c1.401855,-8.185944 -0.015045,-17.828522 -4.58609,-26.970886c-4.576065,-9.142059 -11.430161,-16.066223 -18.824982,-19.851135c-7.394745,-3.794983 -15.320282,-4.460846 -22.02916,-1.106506c-4.936493,2.473389 -8.526291,6.778992 -10.639084,12.136139l-0.01506,-0.020203c-2.102768,5.367249 -5.692505,9.682983 -10.634033,12.146271c-6.703918,3.35434 -14.639374,2.698578 -22.034195,-1.106537c-7.384827,-3.794983 -14.24884,-10.719177 -18.814911,-19.85141c-4.571106,-9.142059 -5.992981,-18.784668 -4.59111,-26.97052c1.40184,-8.195984 5.622452,-14.93988 12.336349,-18.29422c1.882462,-0.941498 3.860107,-1.567322 5.897781,-1.887573l0.130188,-0.029968c0.680908,-0.090118 1.361816,-0.305573 2.012695,-0.635895c1.632111,-0.811035 2.778656,-2.217896 3.314407,-3.815186c0.53569,-1.602142 0.460587,-3.414566 -0.355469,-5.046661l-0.025055,-0.050095l-35.802422,-71.599686l-0.01001,0.040039l71.604866,-35.797546l0.045074,-0.019867c1.632111,-0.821106 3.444489,-0.891373 5.046661,-0.360565c1.602066,0.535675 3.003937,1.682205 3.820068,3.314301c0.325439,0.656097 0.530716,1.331757 0.630783,2.012878l0.020035,0.124969c0.325424,2.03273 0.956284,4.020538 1.892517,5.89801c3.354431,6.708725 10.103409,10.934296 18.28923,12.341171c8.195892,1.406906 17.833618,-0.019867 26.970764,-4.595917c9.147095,-4.566299 16.066284,-11.420166 19.851288,-18.814896c3.800049,-7.404846 4.465912,-15.335587 1.11145,-22.039406c-2.468323,-4.926559 -6.778992,-8.516228 -12.146118,-10.629005l0.025055,-0.010094c-5.367126,-2.122856 -9.677795,-5.702431 -12.146057,-10.639076c-3.354431,-6.708733 -2.683624,-14.63945 1.111481,-22.029015c3.789948,-7.395042 10.709137,-14.258987 19.846222,-18.824978c9.147186,-4.576069 18.779907,-5.982971 26.975769,-4.586159c8.195862,1.396809 14.934753,5.622379 18.289185,12.331402c0.941254,1.887581 1.567078,3.860092 1.892578,5.897697l0.015015,0.135078c0.105133,0.675941 0.315369,1.366867 0.635834,2.012863c0.816071,1.622017 2.222961,2.768547 3.825043,3.314331c1.602142,0.525597 3.409515,0.460495 5.041718,-0.360596l0.019989,-0.009773l71.614868,-35.807625l-0.050049,-0.010086l35.797424,71.610054l0.019989,0.040031c0.821106,1.622009 0.901245,3.444504 0.360535,5.046661c-0.540741,1.602173 -1.682251,3.00386 -3.314423,3.824959c-0.655853,0.320564 -1.331787,0.535675 -2.012634,0.625832l-0.125214,0.030228c-2.032654,0.320274 -4.020294,0.946106 -5.897766,1.887291c-6.708954,3.35466 -10.934509,10.103401 -12.3414,18.294487c-1.39682,8.195679 0.020081,17.828491 4.59613,26.970551c4.56601,9.142059 11.420105,16.066208 18.814941,19.851425c7.404816,3.794998 15.335327,4.460861 22.039124,1.106522c4.936584,-2.463287 8.526337,-6.779007 10.629089,-12.14624l0.01001,0.029968c2.112793,-5.357132 5.702576,-9.672852 10.63913,-12.135834c6.718933,-3.374542 14.639435,-2.698578 22.029205,1.09642c7.389771,3.795013 14.25885,10.709076 18.82489,19.851135c4.576111,9.15213 5.992981,18.784943 4.58606,26.980927c-1.396851,8.195663 -5.622375,14.929733 -12.331299,18.284103c-1.887451,0.941177 -3.860107,1.567017 -5.897827,1.887573l-0.135132,0.029953c-0.675903,0.100235 -1.356812,0.305267 -2.002686,0.625824c-1.632202,0.821091 -2.788696,2.217911 -3.314392,3.835037c-0.535706,1.592087 -0.460663,3.414566 0.350403,5.046661l0.01001,0.010086l35.807556,71.619858l0.039978,-0.050171z" id="path13805" stroke-linejoin="round" stroke-linecap="square" stroke-width="4" fill="#ffff00"/>
  </g>
 </g>
</svg>