<svg height="448pt" viewBox="0 0 448 448" width="448pt" xmlns="http://www.w3.org/2000/svg"><path d="m362.457031 176 18-48h-104.914062l18 48zm0 0"/><path d="m288 224h80c8.835938 0 16-7.164062 16-16s-7.164062-16-16-16h-80c-8.835938 0-16 7.164062-16 16s7.164062 16 16 16zm0 0"/><path d="m116.121094 246.855469-36.121094 21.671875v19.472656c-.0625 20.835938-16.140625 38.121094-36.921875 39.6875l-12.796875 9.601562c-8.96875 6.769532-14.253906 17.347657-14.28125 28.582032-.035156 9.503906 3.734375 18.625 10.472656 25.328125l8.800782 8.800781h132.726562c22.082031-.027344 39.972656-17.917969 40-40v-120c-.058594-48.578125-39.421875-87.941406-88-88h-8c-4.417969 0-8-3.582031-8-8 0-17.671875-14.328125-32-32-32v32c0 4.417969-3.582031 8-8 8-26.5.027344-47.972656 21.5-48 48v104c0 4.417969 3.582031 8 8 8h16c13.253906 0 24-10.746094 24-24v-24c0-2.808594 1.472656-5.410156 3.878906-6.855469l36.121094-21.671875v-19.472656h16v24c0 2.808594-1.472656 5.410156-3.878906 6.855469zm-67.320313 124.570312.625 1.503907-14.769531 6.140624-.632812-1.519531c-4.585938-11.398437-.902344-24.460937 8.96875-31.78125l10.03125 12.460938c-4.304688 2.878906-6.058594 8.347656-4.222657 13.195312zm-.800781-115.425781h-16v-56h16zm16-72c-4.550781.007812-8.882812 1.949219-11.921875 5.335938l-11.910156-10.671876c6.070312-6.773437 14.734375-10.652343 23.832031-10.664062zm0 0"/><path d="m208 400c2.703125.035156 5.394531.414062 8 1.136719v-10.402344c0-.855469.214844-1.664063.28125-2.503906-2.519531 4.3125-5.605469 8.269531-9.167969 11.769531zm0 0"/><path d="m296 96v16h64v-16zm0 0"/><path d="m317.65625 50.34375c1.988281 1.988281 2.785156 4.875 2.105469 7.601562l-5.515625 22.054688h27.507812l-5.515625-22.054688c-.679687-2.726562.117188-5.609374 2.101563-7.597656 1.988281-1.988281 4.871094-2.789062 7.597656-2.109375l22.0625 5.515625v-27.507812l-22.0625 5.515625c-2.726562.679687-5.609375-.121094-7.597656-2.109375-1.984375-1.988282-2.78125-4.871094-2.101563-7.597656l5.515625-22.054688h-27.507812l5.515625 22.054688c.679687 2.726562-.117188 5.609374-2.101563 7.597656-1.988281 1.988281-4.871094 2.789062-7.597656 2.109375l-22.0625-5.515625v27.507812l22.0625-5.515625c2.726562-.679687 5.609375.121094 7.59375 2.105469zm0 0"/><path d="m432 416h-196.449219c5.933594 9.84375 5.933594 22.15625 0 32h196.449219c8.835938 0 16-7.164062 16-16s-7.164062-16-16-16zm0 0"/><path d="m208 416h-192c-8.835938 0-16 7.164062-16 16s7.164062 16 16 16h192c8.835938 0 16-7.164062 16-16s-7.164062-16-16-16zm0 0"/><path d="m240 308v-76c-.074219-66.242188-53.757812-119.925781-120-120h-12.246094c.230469.257812.414063.558594.636719.800781.539063.625 1 1.289063 1.503906 1.933594 1.070313 1.371094 2.058594 2.796875 2.96875 4.273437.472657.800782.929688 1.550782 1.359375 2.359376.832032 1.558593 1.570313 3.160156 2.21875 4.800781.3125.761719.648438 1.496093.917969 2.28125.863281 2.453125 1.527344 4.972656 1.976563 7.535156h.664062c57.417969.066406 103.941406 46.597656 104 104.015625v80zm0 0"/><path d="m424 390.734375c.015625-4.863281-2.199219-9.46875-6.007812-12.496094l-11.257813-9.007812c-.488281-.390625-.894531-.839844-1.375-1.230469h-125.359375v-16h109.246094c-18.910156-22.363281-29.277344-50.710938-29.246094-80v-32h-64v32c.089844 37.847656-17.121094 73.65625-46.726562 97.230469l-11.273438 9.007812c-3.804688 3.03125-6.015625 7.632813-6 12.496094v9.265625h192zm-112-134.734375h16v16h-16zm-.800781 31.089844 15.914062 1.742187c-1.539062 17.871094-7.375 35.101563-17.007812 50.230469l-13.144531-9.125c8.105468-12.941406 12.988281-27.632812 14.238281-42.847656zm0 0"/></svg>